<svg viewBox="0 0 100 100" xmlns="http://www.w3.org/2000/svg" fill="none">
  <defs>
    <mask id="gm">
      <rect width="100" height="100" fill="white"/>
      <!-- bore hole -->
      <circle cx="50" cy="50" r="20.5" fill="black"/>
      <!-- arrow slot (diagonal lower-left → upper-right) -->
      <polygon points="19.5,73.5 61.5,31.5 74,24 66.5,36.5 24.5,78.5" fill="black"/>
    </mask>
  </defs>

  <!-- Gear ring (8 teeth, outer r=44, root r=36) -->
  <path fill="#6C63FF" mask="url(#gm)" d="
    M43.88,6.43
    A44,44 0 0,1 56.12,6.43 L55.01,14.35 A36,36 0 0,1 71.66,21.25 L76.48,14.86
    A44,44 0 0,1 85.14,23.52 L78.75,28.34 A36,36 0 0,1 85.65,44.99 L93.57,43.88
    A44,44 0 0,1 93.57,56.12 L85.65,55.01 A36,36 0 0,1 78.75,71.66 L85.14,76.48
    A44,44 0 0,1 76.48,85.14 L71.66,78.75 A36,36 0 0,1 55.01,85.65 L56.12,93.57
    A44,44 0 0,1 43.88,93.57 L44.99,85.65 A36,36 0 0,1 28.34,78.75 L23.52,85.14
    A44,44 0 0,1 14.86,76.48 L21.25,71.66 A36,36 0 0,1 14.35,55.01 L6.43,56.12
    A44,44 0 0,1 6.43,43.88 L14.35,44.99 A36,36 0 0,1 21.25,28.34 L14.86,23.52
    A44,44 0 0,1 23.52,14.86 L28.34,21.25 A36,36 0 0,1 44.99,14.35 L43.88,6.43 Z
  "/>

  <!-- C letter (arc, opening right) -->
  <path d="M58.5,41.5 A12,12 0 1,0 58.5,58.5"
        stroke="#0f172a" stroke-width="4" stroke-linecap="round"/>

  <!-- D letter (bar + right-curving arc) -->
  <line x1="50" y1="40" x2="50" y2="60" stroke="#0f172a" stroke-width="4" stroke-linecap="round"/>
  <path d="M50,40 A10,10 0 0,1 50,60"
        stroke="#0f172a" stroke-width="4" stroke-linecap="round"/>
</svg>
